<?xml version="1.0" standalone="no"?>
<!DOCTYPE svg PUBLIC "-//W3C//DTD SVG 20010904//EN"
 "http://www.w3.org/TR/2001/REC-SVG-20010904/DTD/svg10.dtd">
<svg version="1.0" xmlns="http://www.w3.org/2000/svg"
 width="512.000000pt" height="512.000000pt" viewBox="0 0 512.000000 512.000000"
 preserveAspectRatio="xMidYMid meet">
<metadata>
Created by potrace 1.11, written by Peter Selinger 2001-2013
</metadata>
<g transform="translate(0.000000,512.000000) scale(0.100000,-0.100000)"
fill="#000000" stroke="none">
<path d="M1289 5106 c-120 -34 -238 -128 -290 -233 l-24 -48 -3 -1087 -2
-1087 -343 -3 -342 -3 -67 -33 c-83 -40 -144 -100 -183 -178 l-30 -59 0 -620
0 -620 27 -57 c37 -80 105 -149 186 -189 l67 -34 342 -3 342 -3 3 -277 c3
-269 4 -278 27 -325 55 -112 184 -210 311 -237 41 -8 506 -10 1810 -8 l1755 3
46 21 c93 43 156 121 184 230 13 51 15 284 15 1849 l0 1790 -647 612 -648 612
-1245 0 c-972 -1 -1255 -4 -1291 -13z m92 -2812 c76 -23 124 -49 176 -97 56
-52 91 -111 99 -168 5 -39 3 -49 -21 -77 -22 -27 -34 -32 -69 -32 -49 0 -63
12 -119 102 -52 82 -101 112 -194 117 -93 4 -148 -15 -198 -71 -50 -54 -73
-111 -85 -202 -19 -148 18 -296 88 -357 51 -45 92 -59 174 -59 119 0 184 44
235 160 35 78 48 90 100 90 86 0 115 -71 73 -182 -30 -81 -97 -151 -188 -195
l-76 -38 -146 0 c-144 0 -145 0 -218 34 -122 57 -208 168 -247 317 -20 76 -19
243 0 319 43 165 155 285 313 336 74 24 228 25 303 3z m1069 -14 c60 -17 126
-65 155 -114 36 -61 44 -149 21 -210 -17 -44 -93 -126 -118 -126 -7 0 14 -15
46 -33 97 -52 144 -138 133 -243 -10 -99 -64 -174 -156 -218 l-66 -31 -280 -3
c-273 -3 -281 -3 -307 18 -15 11 -32 38 -38 58 -13 50 -13 784 0 834 6 20 22
46 37 58 24 19 39 20 282 20 141 0 272 -5 291 -10z m1055 -11 c111 -41 165
-115 173 -235 9 -140 -55 -220 -220 -277 -14 -5 -7 -16 38 -59 67 -63 122
-141 169 -240 38 -79 41 -94 24 -131 -22 -49 -115 -64 -162 -27 -14 12 -65 85
-113 163 -98 161 -144 221 -182 241 -15 8 -60 17 -99 21 l-73 7 0 -181 c0
-241 -12 -271 -113 -271 -50 0 -81 26 -97 81 -13 43 -13 790 0 844 5 22 21 50
35 63 26 22 31 22 295 22 249 0 273 -2 325 -21z"/>
<path d="M2050 2010 l0 -133 141 6 c79 4 152 12 167 19 45 22 75 76 69 126 -9
83 -42 98 -244 108 l-133 7 0 -133z"/>
<path d="M2050 1595 l0 -148 149 6 c172 6 228 23 255 76 20 38 20 94 0 132
-27 53 -82 69 -254 76 l-150 6 0 -148z"/>
<path d="M3060 2005 l0 -138 138 6 c158 8 195 16 234 54 52 50 33 154 -35 186
-24 12 -79 18 -185 23 l-152 7 0 -138z"/>
</g>
</svg>
